<?xml version="1.0" encoding="UTF-8"?><svg id="Capa_2" xmlns="http://www.w3.org/2000/svg" xmlns:xlink="http://www.w3.org/1999/xlink" viewBox="0 0 119.05 88.15"><defs><style>.cls-1{fill:#07543e;}.cls-2{fill:url(#Degradado_sin_nombre_13);}.cls-3{fill:#fff;}.cls-4{letter-spacing:.03em;}.cls-5{fill:url(#Degradado_sin_nombre_15);}.cls-6{fill:#0104fb;font-family:RACE1BranntPlusChiseledNCV, 'RACE1 Brannt Plus Chiseled NCV';font-size:33.8px;}.cls-7{fill:#0104ff;}.cls-8{fill:#014bf4;}.cls-9{fill:none;}.cls-10{letter-spacing:.03em;}</style><linearGradient id="Degradado_sin_nombre_15" x1="87.26" y1="33.28" x2="87.3" y2="28.28" gradientUnits="userSpaceOnUse"><stop offset=".04" stop-color="#0269fb"/><stop offset=".13" stop-color="#0269fb"/><stop offset=".63" stop-color="#35e4e8"/></linearGradient><linearGradient id="Degradado_sin_nombre_13" x1="87.48" y1="40.2" x2="87.54" y2="20.46" gradientUnits="userSpaceOnUse"><stop offset=".05" stop-color="#0269fb"/><stop offset=".3" stop-color="#35e4e8"/></linearGradient></defs><g id="EAS"><g><polygon class="cls-7" points="89.54 25.91 89.54 26.78 85.27 26.78 85.27 25.91 85.86 25.91 85.86 22.97 88.88 22.97 88.88 25.91 89.54 25.91"/><polygon class="cls-7" points="88.98 17.95 88.98 18.18 87.75 18.18 87.75 19.4 87.07 19.4 87.07 18.18 85.84 18.18 85.84 17.95 88.98 17.95"/><polygon class="cls-7" points="88.76 19.4 88.76 19.87 88.51 19.87 88.51 21.05 86.32 21.05 86.32 19.87 86.08 19.87 86.08 19.4 88.76 19.4"/><g><g><rect class="cls-7" x="83.55" y="0" width="7.99" height="15.83" rx="3.99" ry="3.99"/><rect class="cls-7" x="66.87" y="6.91" width="7.99" height="15.83" rx="3.99" ry="3.99" transform="translate(10.27 54.45) rotate(-45)"/><rect class="cls-7" x="55.03" y="27.51" width="15.83" height="7.99" rx="3.99" ry="3.99"/><rect class="cls-7" x="82.85" y="48.05" width="7.99" height="15.83" rx="3.99" ry="3.99"/><rect class="cls-7" x="99.83" y="41.27" width="7.99" height="15.83" rx="3.99" ry="3.99" transform="translate(-4.37 87.82) rotate(-45)"/><rect class="cls-7" x="103.21" y="28.3" width="15.83" height="7.99" rx="3.99" ry="3.99"/><rect class="cls-7" x="96.31" y="10.83" width="15.83" height="7.99" rx="3.99" ry="3.99" transform="translate(20.04 78.04) rotate(-45)"/></g><path class="cls-9" d="M96.21,32.67c0-.12,0-.24,0-.36,0-.14,0-.28,0-.42h-1.05v-1.01h.94c-.35-2.12-1.47-3.98-3.05-5.3l-.23,.55-.93-.39,.32-.78c-.15-.1-.31-.19-.47-.28l-.32,.78-.93-.39,.35-.83c-1.03-.43-2.16-.66-3.34-.66-1.27,0-2.47,.27-3.56,.76l.41,.98-.93,.39-.37-.9c-.16,.09-.32,.19-.47,.3l.37,.88-.93,.39-.26-.63c-1.48,1.3-2.53,3.1-2.86,5.13h.87v1.01h-.98c0,.14,0,.28,0,.42,0,.12,0,.24,0,.36h.98v1.01h-.88c.66,4.16,4.28,7.36,8.63,7.36s7.96-3.2,8.63-7.36h-.95v-1.01h1.05Zm-8.93,.65c-1.12,0-2.03-.91-2.03-2.03s2.03-3.7,2.03-3.7c0,0,2.03,2.57,2.03,3.7s-.91,2.03-2.03,2.03Z"/><path class="cls-5" d="M85.24,31.28c0,1.12,.91,2.03,2.03,2.03s2.03-.91,2.03-2.03-2.03-3.7-2.03-3.7c0,0-2.03,2.57-2.03,3.7Z"/><path class="cls-7" d="M93.13,21.31l-.45,1.07-.95,2.29-.32,.78-.93-.39,.35-.83c-1.03-.43-2.16-.66-3.34-.66-1.27,0-2.47,.27-3.56,.76l.41,.98-.93,.39-.37-.9-.96-2.3-.4-.95,.93-.39,.37,.88c1.04-.46,2.16-.77,3.34-.89v-.12h2.19v.1c1.15,.1,2.24,.38,3.26,.81l.43-1.03,.93,.39Z"/><path class="cls-7" d="M99.42,30.88v1.01h-4.27v-1.01h.94c-.35-2.12-1.47-3.98-3.05-5.3-.27-.22-.55-.42-.84-.61l.96-2.31c.3,.17,.58,.36,.86,.56,2.46,1.77,4.17,4.51,4.57,7.66h.83Z"/><path class="cls-8" d="M98.7,32.67c0,.34-.04,.68-.08,1.01-.68,5.53-5.4,9.83-11.12,9.83s-10.44-4.3-11.12-9.83c-.04-.33-.07-.67-.08-1.01h2.47c.01,.34,.05,.68,.1,1.01,.66,4.16,4.28,7.36,8.63,7.36s7.96-3.2,8.63-7.36c.05-.33,.09-.67,.1-1.01h2.47Z"/><path class="cls-7" d="M82.56,25.1c-.29,.2-.56,.41-.83,.64-1.48,1.3-2.53,3.1-2.86,5.13h.87v1.01h-4.27v-1.01h.9c.39-3.06,2.02-5.74,4.37-7.51,.27-.21,.56-.4,.85-.58l.97,2.32Z"/><path class="cls-2" d="M86.92,35.34c-4.32,.64-7.43-2.44-7.46-2.48,.29,4.15,3.88,7.64,8.11,7.64s7.8-3.59,7.99-7.84c-4.19-.07-4.3,2.04-8.63,2.68Z"/><path class="cls-3" d="M88.38,29.79s1.24,1.42,.25,2.64c0,0,.2-.56,0-1.48s-.25-1.16-.25-1.16Z"/><g><path class="cls-1" d="M4.29,82.99h-1.21c-.72,0-1.07-.35-1.07-1.04v-10.38c0-.24,.08-.43,.25-.56,.17-.13,.36-.2,.59-.2,.24,0,.44,.06,.6,.19,.16,.13,.24,.31,.24,.55v3.5c0,.62,.02,1.01,.07,1.17,.05,.16,.22,.4,.52,.7l.46,.44c.32,.26,.5,.49,.55,.67,.05,.18,.08,.59,.08,1.22v2.7c0,.69-.36,1.04-1.07,1.04Z"/><path class="cls-1" d="M9.61,82.99h-.73c-.71,0-1.07-.35-1.07-1.04v-5.8c0-.34,.1-.6,.3-.77,.2-.18,.46-.26,.79-.26h4.5c.71,0,1.07,.35,1.07,1.04v6.09c0,.24-.07,.43-.21,.56-.14,.13-.31,.2-.5,.2-.49,0-.73-.26-.73-.79v-5.1c0-.31-.04-.51-.12-.59-.08-.08-.28-.11-.59-.11h-2.35c-.3,0-.5,.04-.58,.12s-.13,.27-.13,.58,.02,.49,.06,.57c.04,.08,.25,.29,.62,.65,.38,.36,.6,.59,.66,.68,.07,.09,.1,.27,.1,.54v2.42c0,.69-.36,1.04-1.09,1.04Z"/><path class="cls-1" d="M22.96,77.09v2.29c0,.38-.09,.64-.26,.79-.17,.15-.45,.23-.83,.23h-.85c-.73,0-1.15,.03-1.27,.08s-.18,.28-.18,.68v.55c0,.64,.03,1.02,.1,1.12,.07,.11,.33,.16,.78,.16h2.45c.32,0,.58,.09,.79,.27s.31,.44,.31,.77v3.1c0,.38-.09,.64-.26,.79-.17,.15-.45,.23-.83,.23h-4.95c-.38,0-.66-.07-.82-.22-.17-.15-.25-.41-.25-.8v-3.18c0-.45,.18-.77,.55-.94,.37-.18,.55-.39,.55-.64v-.93c0-.16-.14-.5-.42-1-.15-.26-.22-.62-.22-1.06v-3.23c0-.69,.36-1.04,1.09-1.04h5.18c.25,0,.44,.06,.58,.19,.14,.13,.21,.28,.21,.45s-.07,.33-.2,.45c-.13,.13-.32,.19-.57,.19-.29,0-.47,.04-.55,.11-.08,.08-.12,.27-.12,.59Zm-1.44,0c0-.31-.04-.51-.12-.59-.08-.08-.28-.11-.59-.11h-1.28c-.32,0-.52,.04-.6,.12-.09,.08-.13,.27-.13,.58v1.32c0,.3,.04,.49,.13,.58,.08,.08,.29,.12,.6,.12h1.28c.3,0,.5-.04,.58-.12,.08-.08,.13-.27,.13-.58v-1.32Zm-1.92,9.06c0,.24,.03,.41,.08,.53,.05,.11,.27,.17,.65,.17h1.5c.3,0,.5-.04,.58-.12,.08-.08,.13-.27,.13-.57v-1.18c0-.31-.04-.51-.12-.58s-.28-.11-.59-.11h-1.5c-.32,0-.52,.04-.6,.12-.09,.08-.13,.27-.13,.57v1.18Z"/><path class="cls-1" d="M30.27,79.27c-.29,0-.44,.16-.44,.47v1.47c0,.33,.15,.49,.44,.49h2.07c.29,0,.43-.16,.43-.49v-.13c0-.21,.07-.38,.21-.5,.14-.12,.31-.18,.51-.18s.37,.06,.51,.18c.14,.12,.21,.29,.21,.52v.85c0,.69-.36,1.04-1.07,1.04h-5.35c-.71,0-1.07-.35-1.07-1.04v-5.8c0-.69,.36-1.04,1.07-1.04h5.35c.71,0,1.07,.35,1.07,1.04v2.08c0,.69-.36,1.04-1.07,1.04h-2.88Zm1.75-2.87h-1.44c-.21,0-.39,.07-.53,.22-.14,.15-.21,.32-.21,.51,0,.2,.07,.38,.2,.52,.13,.14,.31,.21,.54,.21h1.44c.2,0,.37-.07,.52-.21s.22-.31,.22-.52c0-.19-.07-.36-.21-.51-.14-.15-.32-.22-.53-.22Z"/><path class="cls-1" d="M38.47,82.99h-.73c-.71,0-1.07-.35-1.07-1.04v-5.8c0-.34,.1-.6,.3-.77,.2-.18,.46-.26,.79-.26h4.5c.71,0,1.07,.35,1.07,1.04v6.09c0,.24-.07,.43-.21,.56-.14,.13-.31,.2-.5,.2-.49,0-.73-.26-.73-.79v-5.1c0-.31-.04-.51-.12-.59-.08-.08-.28-.11-.59-.11h-2.35c-.3,0-.5,.04-.58,.12s-.13,.27-.13,.58,.02,.49,.06,.57c.04,.08,.25,.29,.62,.65,.38,.36,.6,.59,.66,.68,.07,.09,.1,.27,.1,.54v2.42c0,.69-.36,1.04-1.09,1.04Z"/><path class="cls-1" d="M46.47,72.29c.2,0,.37,.07,.5,.21,.14,.14,.21,.31,.21,.49s-.07,.35-.2,.48-.3,.21-.51,.21c-.2,0-.37-.07-.51-.21-.14-.14-.22-.3-.22-.48,0-.2,.07-.37,.2-.5,.13-.14,.31-.21,.53-.21Zm1.38,6.01c.37,.35,.59,.59,.66,.7s.11,.32,.11,.6v2.34c0,.69-.36,1.04-1.09,1.04h-.73c-.71,0-1.07-.35-1.07-1.04v-6.09c0-.24,.07-.43,.21-.56,.14-.13,.31-.2,.52-.2s.38,.06,.51,.18c.13,.12,.2,.31,.2,.56v.79c0,.55,.02,.88,.06,.98,.04,.1,.24,.33,.61,.68Z"/><path class="cls-1" d="M54.59,79.27c-.29,0-.44,.16-.44,.47v1.47c0,.33,.15,.49,.44,.49h2.07c.29,0,.43-.16,.43-.49v-.13c0-.21,.07-.38,.21-.5,.14-.12,.31-.18,.51-.18s.37,.06,.51,.18c.14,.12,.21,.29,.21,.52v.85c0,.69-.36,1.04-1.07,1.04h-5.35c-.71,0-1.07-.35-1.07-1.04v-5.8c0-.69,.36-1.04,1.07-1.04h5.35c.71,0,1.07,.35,1.07,1.04v2.08c0,.69-.36,1.04-1.07,1.04h-2.88Zm1.75-2.87h-1.44c-.21,0-.39,.07-.53,.22-.14,.15-.21,.32-.21,.51,0,.2,.07,.38,.2,.52,.13,.14,.31,.21,.54,.21h1.44c.2,0,.37-.07,.52-.21s.22-.31,.22-.52c0-.19-.07-.36-.21-.51-.14-.15-.32-.22-.53-.22Z"/><path class="cls-1" d="M63.88,81.95c0,.69-.36,1.04-1.09,1.04h-.73c-.71,0-1.07-.35-1.07-1.04v-5.8c0-.34,.1-.6,.3-.77,.2-.18,.46-.26,.79-.26h3.44c.32,0,.58,.09,.78,.27,.2,.18,.31,.44,.31,.77v.91c0,.21-.07,.39-.21,.52-.14,.13-.31,.2-.5,.2-.49,0-.73-.24-.73-.72,0-.31-.04-.5-.12-.57s-.28-.09-.61-.09h-1.28c-.3,0-.5,.04-.58,.12s-.13,.27-.13,.58,.02,.51,.06,.59c.03,.05,.23,.26,.61,.62,.38,.37,.61,.6,.67,.69,.07,.09,.1,.27,.1,.54v2.42Z"/><path class="cls-1" d="M77.27,76.15v5.8c0,.69-.36,1.04-1.07,1.04h-6.12c-.72,0-1.09-.35-1.09-1.04v-5.8c0-.34,.1-.6,.3-.77,.2-.18,.46-.26,.79-.26h6.12c.71,0,1.07,.35,1.07,1.04Zm-1.44,4.86v-3.91c0-.31-.04-.51-.12-.59-.08-.08-.28-.11-.59-.11h-3.97c-.3,0-.5,.04-.58,.12s-.13,.27-.13,.58v3.91c0,.31,.04,.51,.12,.59s.28,.11,.59,.11h3.97c.3,0,.5-.04,.58-.12,.09-.08,.13-.27,.13-.58Z"/><path class="cls-1" d="M85.12,82.99h-4.39c-.71,0-1.07-.35-1.07-1.04v-.95c0-.23,.07-.4,.22-.53,.15-.13,.32-.19,.51-.19s.37,.06,.5,.18c.14,.12,.21,.3,.21,.54,0,.31,.04,.51,.12,.59s.28,.11,.59,.11h.77c.32,0,.52-.04,.6-.12s.13-.27,.13-.58v-.66c0-.35-.07-.56-.2-.61-.13-.06-.31-.09-.53-.09h-1.88c-.7,0-1.05-.34-1.05-1.02v-2.48c0-.34,.1-.6,.3-.77,.2-.18,.46-.26,.79-.26h4.37c.32,0,.58,.09,.78,.27,.2,.18,.31,.44,.31,.77v1c0,.24-.07,.42-.2,.54-.14,.12-.31,.18-.52,.18-.2,0-.36-.06-.51-.19s-.21-.3-.21-.53c0-.35-.04-.57-.12-.64-.08-.08-.28-.11-.6-.11h-2.22c-.3,0-.5,.04-.59,.12s-.13,.27-.13,.58v.57c0,.32,.04,.51,.12,.59,.08,.08,.28,.11,.59,.11h3.3c.72,0,1.09,.35,1.09,1.04v2.55c0,.69-.36,1.04-1.09,1.04Z"/></g><text class="cls-6" transform="translate(0 69.84) scale(1.16 1)"><tspan class="cls-10" x="0" y="0">E</tspan><tspan class="cls-4" x="21.16" y="0">AS</tspan></text></g></g></g></svg>